<?xml version="1.0" encoding="utf-8"?>
<!-- Generator: Adobe Illustrator 24.0.1, SVG Export Plug-In . SVG Version: 6.00 Build 0)  -->
<svg version="1.1" id="Layer_1" xmlns="http://www.w3.org/2000/svg" xmlns:xlink="http://www.w3.org/1999/xlink" x="0px" y="0px"
	 width="194px" height="180.9733px" viewBox="0 0 194 180.9733" style="enable-background:new 0 0 194 180.9733;"
	 xml:space="preserve">
<style type="text/css">
	.st0{fill:#FDAD07;}
	.st1{fill:#FDD11D;}
	.st2{fill:#FED01D;}
	.st3{fill:#403D43;}
	.st4{fill:#EA4F4D;}
</style>
<g>
	<path class="st0" d="M96.2424,3.1345c13.3225-0.0913,27.3679,3.7591,40.2332,11.5755
		c19.7504,11.9995,32.426,29.3021,37.9196,51.7715c2.7462,11.2323,2.8889,22.5493,0.7939,33.9234
		c-0.483,2.6225-1.1223,5.1914-1.8662,7.738c-0.3634,1.2443-0.2007,1.7965,1.2461,1.8072
		c8.1492,0.0599,13.4459,9.1783,10.4974,16.1043c-0.6285,1.4765-0.5202,2.5081,0.5929,3.8942
		c3.0808,3.8363,3.5312,8.1902,1.3814,12.6712c-0.5452,1.1363-0.5888,2.0507-0.0535,3.2121
		c2.3031,4.9971,0.3958,10.9114-4.606,14.8172c-4.6045,3.5956-9.9052,5.8172-15.2943,7.8695
		c-11.6159,4.4237-23.5707,7.1924-36.0714,6.8693c-6.9433-0.1794-13.7274-1.4876-19.194-6.0916
		c-2.5052-2.1099-4.664-3.1065-8.0284-2.4855c-6.334,1.1689-12.7947,0.7935-19.1548-0.0061
		c-2.4536-0.3085-3.9955,0.3743-5.7273,1.9173c-4.5083,4.0167-10.0679,5.6998-15.9402,6.3269
		c-12.808,1.3678-25.056-1.2995-37.0702-5.4247c-5.7115-1.9611-11.3189-4.182-16.3785-7.55
		c-3.6704-2.4433-6.5613-5.4894-7.426-10.0516c-0.4232-2.2327-0.1513-4.3583,0.8565-6.3348
		c0.5399-1.0589,0.4519-1.8516-0.0647-2.8653c-2.2655-4.4459-1.5234-9.8955,1.8765-13.4713c0.9117-0.959,0.7435-1.7221,0.2945-2.759
		c-2.5213-5.8229,0.0479-12.801,5.6867-15.5528c1.1286-0.5508,2.3335-0.9798,3.5715-1.0544
		c1.3527-0.0815,1.5096-0.6159,1.166-1.7751c-1.7488-5.9007-2.797-11.9357-3.0913-18.0786
		c-1.1095-23.1535,6.0081-43.3797,21.6582-60.5537c7.4191-8.1415,16.1697-14.4676,26.1702-19.0228
		c7.342-3.3442,15.0045-5.6376,23.0431-6.7286C87.0024,3.3189,90.7272,3.2482,96.2424,3.1345z M168.2296,84.9927
		c0.3072-2.4813-0.0403-5.3238-0.4162-8.0776c-0.9806-7.1841-2.6862-14.1997-5.5981-20.9198
		c-4.7722-11.0132-11.8905-20.18-21.075-27.815c-6.6307-5.5121-14.098-9.6051-22.1244-12.632
		c-7.6035-2.8674-15.5997-3.8612-23.6728-4.1019c-3.9938-0.1191-7.9676,0.4373-11.9482,0.8675
		c-5.3813,0.5816-10.4996,2.0746-15.4774,3.9927c-5.861,2.2584-11.3649,5.2612-16.4981,8.9423
		c-5.5949,4.0122-10.4065,8.8068-14.7486,14.1098c-3.5686,4.3583-6.5691,9.0574-9.058,14.1305
		c-2.2481,4.5824-3.9837,9.3149-5.145,14.2595c-1.4116,6.0104-2.0743,12.0667-1.7277,18.2924
		c0.2707,4.8636,0.2924,9.7232,1.377,14.5019c0.1194,0.5263,0.0673,1.1832,0.6632,1.359c0.4808,0.1419,0.8953-0.2844,1.2594-0.6132
		c3.2389-2.9242,6.9493-3.3211,11.0453-2.2564c4.038,1.0496,6.9699,3.6317,9.6455,6.5922c0.9238,1.0222,1.4771,0.9575,2.4302-0.0003
		c3.3336-3.3499,7.3671-4.4443,11.9256-3.1411c3.7094,1.0605,6.259,3.6166,7.9618,6.963c1.2705,2.4967,2.1551,5.1895,3.4228,7.6879
		c2.6563,5.2352,5.9649,10.0024,10.0773,14.2566c2.1143,2.1873,3.9257,4.6766,5.4118,7.4391
		c3.2306,6.0054,3.3552,12.0622,1.0597,18.3018c-0.4195,1.1403-0.2353,1.5255,0.9948,1.6996
		c4.6605,0.6599,9.2733,0.0967,13.9079-0.2905c1.646-0.1375,1.4089-0.6622,0.9068-1.7897c-1.5171-3.407-1.869-7.0663-1.3274-10.6696
		c0.8264-5.4977,3.5164-10.213,7.3907-14.1355c4.352-4.4063,7.8522-9.3724,10.5706-14.8981
		c1.2881-2.6182,2.1841-5.439,3.5775-7.9937c4.2727-7.8338,13.9995-9.6385,19.7139-3.2679c0.856,0.9543,1.487,0.9678,2.3719,0.0151
		c1.9445-2.0936,3.8632-4.2299,6.5056-5.5243c4.507-2.2078,9.0423-2.7222,13.3998,0.1697c1.4281,0.9477,1.6792,0.3645,1.8501-0.767
		C167.5999,94.9265,168.3564,90.1738,168.2296,84.9927z M138.589,117.1597c0.2612-1.3083-0.306-2.8704-1.0705-4.2953
		c-1.3939-2.598-3.8538-3.2954-5.9196-1.0808c-0.4098,0.4393-0.7768,0.8892-1.072,1.4204c-1.5519,2.7926-2.4147,5.884-3.9583,8.6994
		c-3.1692,5.7803-6.7577,11.1946-11.4499,15.8862c-2.8264,2.8261-5.1941,6.1708-5.1983,10.3399
		c-0.0073,7.2063,3.5199,12.5524,9.616,16.2172c4.038,2.4275,8.6445,2.5898,13.1599,2.8953
		c2.6367,0.1784,5.2731-0.3251,7.907-0.5857c4.9085-0.4857,9.7237-1.5276,14.4455-2.8255
		c5.6712-1.5588,11.2219-3.5891,16.498-6.2349c2.7422-1.3751,5.586-2.6763,7.4027-5.3856c0.6959-1.0378,0.9827-2.0431,0.3746-3.1864
		c-0.5972-1.1227-1.6319-1.6567-2.8153-1.6044c-1.2819,0.0566-2.6256,0.1558-3.7969,0.7259
		c-2.7158,1.3217-5.3795,2.7504-8.068,4.1286c-1.8248,0.9354-3.5783,2.0251-5.6187,2.486c-0.9275,0.2095-1.7566,0.179-2.2721-0.7267
		c-0.4987-0.8763-0.2524-1.6188,0.457-2.3319c0.9689-0.974,2.0036-1.8484,3.2694-2.3743c2.9001-1.2051,5.8414-2.312,8.7317-3.5395
		c3.2795-1.3929,6.7341-2.4829,9.2785-5.2105c1.548-1.6595,1.9575-3.5823,1.0057-5.1799c-0.7669-1.2872-2.3701-1.6886-4.5394-1.1666
		c-3.3537,0.807-6.2876,2.5513-9.2981,4.128c-4.2202,2.2102-8.0366,5.1297-12.4136,7.0634
		c-1.5056,0.6652-2.2838,0.1405-2.3045-1.5009c-0.0111-0.8783,0.3476-1.5501,0.9201-2.1812
		c1.6955-1.8688,3.7368-3.302,5.8804-4.5729c4.9386-2.9281,9.9437-5.7463,14.6838-8.9966c1.7495-1.1996,3.4167-2.5105,4.5448-4.3515
		c1.1963-1.9522,0.207-4.9198-1.8456-5.3585c-1.3203-0.2822-2.718-0.2764-3.9991,0.3048c-2.61,1.1841-5.0372,2.7122-7.3936,4.315
		c-5.1072,3.4737-9.8554,7.4047-14.3441,11.6543c-1.1793,1.1165-2.618,1.9184-4.1748,2.4419
		c-0.5853,0.1968-1.1763,0.1793-1.6635-0.3143c-0.5365-0.5436-0.5246-1.1762-0.265-1.8103
		c0.2043-0.4991,0.4331-1.0152,0.7682-1.4288c1.1909-1.4698,2.3446-2.9852,3.6706-4.327c3.6977-3.7418,7.3793-7.4931,10.815-11.4826
		c1.9894-2.3101,3.2313-4.819,2.8663-7.9741c-0.2207-1.9078-1.7631-3.1022-3.6258-2.7243c-1.7106,0.347-3.0848,1.2342-4.346,2.3952
		c-2.6143,2.4065-4.6449,5.2704-6.5728,8.2209c-2.6289,4.0234-5.2215,8.0665-7.4825,12.3158
		c-1.0951,2.0581-2.2047,4.1922-4.7679,4.7803c-1.3795,0.3165-2.727,0.0567-3.7464-0.9703c-1.068-1.076-0.9198-2.2648-0.1728-3.5438
		c0.6788-1.1623,1.6344-2.0018,2.6481-2.8059C136.5515,124.9574,138.6234,121.8187,138.589,117.1597z M56.7466,167.2931
		c1.027,0.2807,2.2633-0.3568,3.5739-0.3667c2.7766-0.0209,5.4809-0.6199,8.0636-1.5984
		c5.1926-1.9673,8.3522-5.9442,10.4982-10.8911c0.8089-1.8646,1.3976-3.8033,1.2594-5.8101
		c-0.2531-3.6775-1.7791-6.8652-4.2444-9.6064c-1.7725-1.9708-3.592-3.9039-5.2794-5.9458
		c-3.5685-4.3181-6.4088-9.0963-8.7665-14.1745c-1.0214-2.1999-1.5953-4.6008-3.0983-6.5887
		c-1.6873-2.2316-4.3727-2.4194-5.8416-0.3616c-2.1002,2.9422-1.8927,8.9503,0.1979,11.8663
		c1.6001,2.2318,3.9187,3.7079,5.6163,5.823c0.9591,1.1949,1.2603,2.4268,0.6361,3.7496c-0.5604,1.1875-2.6016,1.7588-4.0076,1.4374
		c-1.913-0.4372-3.0841-1.7069-3.9754-3.3203c-3.4523-6.2492-7.1061-12.3785-11.3817-18.1011
		c-1.9651-2.6301-3.9619-5.327-7.467-6.1997c-1.8355-0.457-3.3564,0.3167-3.8961,2.1042c-0.6265,2.0752-0.0693,3.9809,0.8786,5.768
		c1.3031,2.4569,3.2182,4.4724,5.1161,6.4729c3.0985,3.2661,6.2851,6.4493,9.3554,9.7411c1.0196,1.0932,1.9896,2.2773,2.6335,3.6642
		c0.2597,0.5594,0.3986,1.087-0.1334,1.6369c-0.5474,0.5658-1.1665,0.8869-1.887,0.601c-0.8511-0.3378-1.7398-0.7107-2.4378-1.2817
		c-2.8862-2.3608-5.6807-4.8332-8.5566-7.2069c-4.7222-3.8976-9.6676-7.492-15.2639-10.0349
		c-1.3659-0.6206-3.0918-0.8504-4.4607,0.3042c-2.0976,1.7692-2.1065,3.6684-0.2438,5.7547
		c3.3114,3.7089,7.6833,5.9383,11.8208,8.4686c3.6392,2.2255,7.502,4.0943,10.8422,6.7884
		c1.1688,0.9427,2.4167,1.8814,2.7453,3.5053c0.1503,0.7426-0.02,1.4321-0.547,1.9583c-0.5856,0.5847-1.2102,0.2049-1.7987-0.0763
		c-0.7296-0.3486-1.4716-0.6758-2.1791-1.0652c-4.4985-2.476-8.7294-5.4241-13.3608-7.6596
		c-2.1349-1.0305-4.2741-2.1004-6.6531-2.5225c-1.4681-0.2605-2.8381-0.2151-3.8261,1.1003
		c-1.0064,1.3398-0.8581,2.8521-0.1257,4.1505c0.6533,1.1585,1.72,2.0854,2.865,2.8412c3.9738,2.623,8.543,3.9182,12.8684,5.7567
		c2.3308,0.9906,4.7936,1.7455,6.5397,3.753c0.6209,0.7139,0.9158,1.4475,0.3099,2.3449c-0.5453,0.8076-1.2367,0.9178-2.1259,0.6893
		c-2.2808-0.5862-4.3678-1.6062-6.3835-2.7828c-3.1344-1.8296-6.2635-3.6664-9.8522-4.4907
		c-1.7834-0.4096-3.4289,0.1322-4.1231,1.5129c-0.7602,1.5118-0.1609,2.8428,0.9298,3.9693
		c1.5572,1.6083,3.3755,2.875,5.3657,3.8858c6.8276,3.4675,14.011,5.9668,21.4306,7.8107
		C44.3125,166.1417,50.3424,166.978,56.7466,167.2931z"/>
	<path class="st1" d="M168.2296,84.9927c0.1268,5.1811-0.6297,9.9338-1.3479,14.6871c-0.171,1.1315-0.422,1.7148-1.8501,0.767
		c-4.3575-2.8918-8.8927-2.3775-13.3998-0.1697c-2.6425,1.2944-4.5611,3.4308-6.5056,5.5243
		c-0.885,0.9528-1.5159,0.9393-2.3719-0.0151c-5.7143-6.3706-15.4411-4.5659-19.7139,3.2679
		c-1.3934,2.5547-2.2894,5.3755-3.5775,7.9937c-2.7185,5.5257-6.2186,10.4919-10.5706,14.8981
		c-3.8742,3.9226-6.5643,8.6378-7.3907,14.1355c-0.5416,3.6033-0.1897,7.2626,1.3274,10.6696
		c0.5021,1.1275,0.7392,1.6523-0.9068,1.7897c-4.6346,0.3872-9.2475,0.9504-13.9079,0.2905
		c-1.2301-0.1742-1.4143-0.5594-0.9948-1.6996c2.2955-6.2397,2.1709-12.2965-1.0597-18.3018
		c-1.4861-2.7625-3.2974-5.2518-5.4118-7.4391c-4.1124-4.2542-7.421-9.0215-10.0773-14.2566
		c-1.2677-2.4984-2.1523-5.1912-3.4228-7.6879c-1.7028-3.3464-4.2524-5.9025-7.9618-6.963
		c-4.5586-1.3032-8.5921-0.2088-11.9256,3.1411c-0.9531,0.9578-1.5063,1.0224-2.4302,0.0003
		c-2.6756-2.9604-5.6075-5.5426-9.6455-6.5922c-4.096-1.0646-7.8064-0.6678-11.0453,2.2564
		c-0.3641,0.3287-0.7786,0.7551-1.2594,0.6132c-0.5959-0.1759-0.5437-0.8327-0.6632-1.359
		c-1.0846-4.7787-1.1063-9.6383-1.377-14.5019c-0.3465-6.2257,0.3161-12.2821,1.7277-18.2924
		c1.1613-4.9446,2.8969-9.6771,5.145-14.2595c2.4888-5.0731,5.4894-9.7721,9.058-14.1305
		c4.3421-5.3031,9.1537-10.0977,14.7486-14.1098c5.1331-3.681,10.6371-6.6839,16.4981-8.9423
		c4.9779-1.9181,10.0961-3.4111,15.4774-3.9927c3.9807-0.4302,7.9544-0.9866,11.9482-0.8675
		c8.073,0.2407,16.0692,1.2345,23.6728,4.1019c8.0264,3.0269,15.4937,7.1199,22.1244,12.632
		c9.1845,7.635,16.3028,16.8018,21.075,27.815c2.9119,6.7201,4.6176,13.7358,5.5981,20.9198
		C168.1893,79.6689,168.5369,82.5114,168.2296,84.9927z M77.8542,111.1c0.1191,0.4011,0.4525,0.5848,0.7773,0.7883
		c8.5711,5.3706,17.5543,5.5286,26.7588,1.9791c1.8867-0.7276,3.8384-1.5515,5.1192-3.3086
		c0.3632-0.2265,0.7699-0.4047,1.0831-0.6868c6.0756-5.4715,9.2014-12.4163,9.8759-20.4545
		c0.3967-4.7277-1.2532-5.7182-5.5807-3.6908c-2.9994,1.4053-5.9676,2.883-9.0063,4.1976
		c-5.9955,2.5938-12.1588,3.9313-18.718,2.4021c-3.9476-0.9203-7.6318-2.471-11.2638-4.2054
		c-2.1535-1.0283-4.208-2.2755-6.5064-2.9884c-2.9422-0.9126-4.1812-0.0644-4.127,2.9698
		c0.1004,5.6127,1.7387,10.7951,4.6563,15.5669C72.7206,106.61,74.9073,109.2169,77.8542,111.1z M66.8027,50.2355
		c-4.7296,0.0055-8.7197,3.0241-10.1515,7.6797c-1.3402,4.3578,0.3881,9.191,4.1907,11.7191
		c1.8332,1.2188,2.6502,1.1044,3.992-0.5992c0.6371-0.8089,1.2259-1.6557,1.8558-2.4706c0.9188-1.1887,2.0874-1.7029,3.574-1.2157
		c1.1305,0.3705,2.2506,0.7731,3.3747,1.1633c1.4367,0.4987,2.3713,0.031,2.9753-1.3783
		C79.6432,58.0655,74.4939,50.2265,66.8027,50.2355z M120.0708,50.2353c-7.7572-0.0292-13.0986,8.0724-9.8887,14.9686
		c0.6085,1.3073,1.5063,1.7888,2.8773,1.31c0.5109-0.1784,1.0085-0.3947,1.5155-0.585c3.5544-1.334,4.3517-1.086,6.5279,2.0104
		c0.2805,0.3991,0.576,0.7884,0.8801,1.1699c1.2566,1.5767,2.0703,1.7179,3.7387,0.66c3.8686-2.453,5.7525-7.4068,4.4816-11.7843
		C128.8864,53.4488,124.7075,50.2527,120.0708,50.2353z M45.6502,61.6221c-4.0805-0.0031-6.9268,2.6693-6.8706,6.5883
		c0.0593,4.1341,2.8556,6.8933,6.835,6.9587c4.0845,0.0671,6.6537-3.1451,6.8667-6.7741
		C52.6835,64.9506,49.5475,61.2217,45.6502,61.6221z M137.5755,68.1318c-0.4874,3.3922,2.7273,6.8539,6.6732,6.9639
		c3.8603,0.1076,7.0371-3.4972,7.0242-6.8034c-0.0144-3.6988-3.0779-6.6677-6.8776-6.6705
		C140.3122,61.6189,137.5794,64.2274,137.5755,68.1318z"/>
	<path class="st2" d="M138.589,117.1597c0.0344,4.6591-2.0375,7.7977-5.2517,10.3472c-1.0137,0.804-1.9693,1.6436-2.6481,2.8059
		c-0.747,1.279-0.8952,2.4678,0.1728,3.5438c1.0193,1.027,2.3669,1.2869,3.7464,0.9703c2.5632-0.5882,3.6727-2.7222,4.7679-4.7803
		c2.2611-4.2493,4.8536-8.2924,7.4825-12.3158c1.9279-2.9505,3.9585-5.8144,6.5728-8.2209c1.2612-1.1609,2.6354-2.0482,4.346-2.3952
		c1.8627-0.3779,3.4051,0.8165,3.6258,2.7243c0.365,3.1551-0.8769,5.6641-2.8663,7.9741
		c-3.4358,3.9895-7.1174,7.7408-10.815,11.4826c-1.326,1.3418-2.4798,2.8572-3.6706,4.327
		c-0.3351,0.4136-0.5639,0.9297-0.7682,1.4288c-0.2596,0.6342-0.2715,1.2667,0.265,1.8103
		c0.4872,0.4936,1.0782,0.5111,1.6635,0.3143c1.5568-0.5235,2.9954-1.3254,4.1748-2.4419
		c4.4888-4.2496,9.2369-8.1806,14.3441-11.6543c2.3564-1.6027,4.7836-3.1309,7.3936-4.315c1.2811-0.5812,2.6788-0.587,3.9991-0.3048
		c2.0525,0.4387,3.0418,3.4063,1.8456,5.3585c-1.1281,1.8411-2.7953,3.1519-4.5448,4.3515
		c-4.7401,3.2503-9.7452,6.0684-14.6838,8.9966c-2.1436,1.271-4.1849,2.7041-5.8804,4.5729
		c-0.5725,0.631-0.9312,1.3028-0.9201,2.1812c0.0208,1.6414,0.7989,2.166,2.3045,1.5009c4.377-1.9337,8.1934-4.8532,12.4136-7.0634
		c3.0105-1.5767,5.9445-3.321,9.2981-4.128c2.1693-0.522,3.7726-0.1206,4.5394,1.1666c0.9518,1.5976,0.5423,3.5204-1.0057,5.1799
		c-2.5444,2.7276-5.999,3.8176-9.2785,5.2105c-2.8902,1.2276-5.8316,2.3344-8.7317,3.5395
		c-1.2658,0.526-2.3005,1.4004-3.2694,2.3743c-0.7094,0.7132-0.9558,1.4556-0.457,2.3319c0.5155,0.9057,1.3446,0.9363,2.2721,0.7267
		c2.0404-0.461,3.7939-1.5506,5.6187-2.486c2.6885-1.3782,5.3521-2.8068,8.068-4.1286c1.1713-0.57,2.5151-0.6692,3.7969-0.7259
		c1.1835-0.0523,2.2182,0.4817,2.8153,1.6044c0.6081,1.1433,0.3214,2.1486-0.3746,3.1864
		c-1.8167,2.7093-4.6605,4.0105-7.4027,5.3856c-5.2761,2.6458-10.8268,4.6762-16.498,6.2349
		c-4.7218,1.2978-9.537,2.3398-14.4455,2.8255c-2.6339,0.2606-5.2703,0.7641-7.907,0.5857
		c-4.5154-0.3055-9.122-0.4678-13.1599-2.8953c-6.0962-3.6648-9.6234-9.0109-9.616-16.2172
		c0.0042-4.1691,2.3719-7.5138,5.1983-10.3399c4.6922-4.6917,8.2808-10.106,11.4499-15.8862
		c1.5436-2.8154,2.4063-5.9068,3.9583-8.6994c0.2952-0.5312,0.6622-0.981,1.072-1.4204c2.0658-2.2146,4.5258-1.5172,5.9196,1.0808
		C138.2829,114.2893,138.8501,115.8513,138.589,117.1597z"/>
	<path class="st2" d="M56.7466,167.2931c-6.4042-0.3152-12.4341-1.1514-18.3698-2.6266c-7.4197-1.844-14.6031-4.3432-21.4306-7.8107
		c-1.9902-1.0108-3.8085-2.2775-5.3657-3.8858c-1.0907-1.1265-1.69-2.4575-0.9298-3.9693c0.6943-1.3807,2.3397-1.9225,4.1231-1.5129
		c3.5887,0.8243,6.7178,2.6611,9.8522,4.4907c2.0157,1.1766,4.1027,2.1966,6.3835,2.7828c0.8892,0.2285,1.5806,0.1183,2.1259-0.6893
		c0.6059-0.8974,0.311-1.631-0.3099-2.3449c-1.7461-2.0075-4.2089-2.7624-6.5397-3.753c-4.3254-1.8384-8.8946-3.1337-12.8684-5.7567
		c-1.1449-0.7558-2.2116-1.6827-2.865-2.8412c-0.7323-1.2985-0.8807-2.8107,0.1257-4.1505c0.988-1.3154,2.358-1.3608,3.8261-1.1003
		c2.379,0.4221,4.5182,1.492,6.6531,2.5225c4.6314,2.2355,8.8624,5.1836,13.3608,7.6596c0.7075,0.3894,1.4495,0.7167,2.1791,1.0652
		c0.5886,0.2812,1.2132,0.661,1.7987,0.0763c0.527-0.5262,0.6973-1.2157,0.547-1.9583c-0.3287-1.6238-1.5766-2.5626-2.7453-3.5053
		c-3.3402-2.6941-7.203-4.5629-10.8422-6.7884c-4.1376-2.5302-8.5094-4.7597-11.8208-8.4686
		c-1.8627-2.0863-1.8538-3.9854,0.2438-5.7547c1.3688-1.1546,3.0948-0.9248,4.4607-0.3042
		c5.5963,2.5429,10.5417,6.1373,15.2639,10.0349c2.8759,2.3737,5.6704,4.8461,8.5566,7.2069
		c0.698,0.5709,1.5867,0.9439,2.4378,1.2817c0.7205,0.2859,1.3396-0.0352,1.887-0.601c0.532-0.5499,0.3931-1.0775,0.1334-1.6369
		c-0.6439-1.3869-1.6138-2.5711-2.6335-3.6642c-3.0704-3.2918-6.257-6.475-9.3554-9.7411c-1.8979-2.0005-3.813-4.016-5.1161-6.4729
		c-0.9478-1.7871-1.5051-3.6928-0.8786-5.768c0.5397-1.7875,2.0606-2.5612,3.8961-2.1042c3.5051,0.8728,5.5019,3.5697,7.467,6.1997
		c4.2756,5.7225,7.9294,11.8519,11.3817,18.1011c0.8913,1.6134,2.0624,2.883,3.9754,3.3203
		c1.406,0.3214,3.4472-0.2499,4.0076-1.4374c0.6242-1.3227,0.323-2.5546-0.6361-3.7496c-1.6977-2.1151-4.0163-3.5912-5.6163-5.823
		c-2.0906-2.9159-2.2981-8.9241-0.1979-11.8663c1.4689-2.0579,4.1544-1.87,5.8416,0.3616c1.503,1.9879,2.0769,4.3888,3.0983,6.5887
		c2.3578,5.0781,5.1981,9.8564,8.7665,14.1745c1.6873,2.0418,3.5069,3.9749,5.2794,5.9458c2.4653,2.7412,3.9913,5.929,4.2444,9.6064
		c0.1381,2.0068-0.4506,3.9456-1.2594,5.8101c-2.146,4.947-5.3057,8.9238-10.4982,10.8911
		c-2.5827,0.9785-5.287,1.5775-8.0636,1.5984C59.01,166.9363,57.7736,167.5739,56.7466,167.2931z"/>
	<path class="st3" d="M77.8542,111.1c-2.9469-1.8831-5.1336-4.49-6.9315-7.4305c-2.9176-4.7718-4.5559-9.9542-4.6563-15.5669
		c-0.0543-3.0342,1.1847-3.8825,4.127-2.9698c2.2984,0.7129,4.353,1.9601,6.5064,2.9884c3.632,1.7344,7.3162,3.2851,11.2638,4.2054
		c6.5592,1.5292,12.7225,0.1917,18.718-2.4021c3.0387-1.3146,6.0068-2.7924,9.0063-4.1976
		c4.3275-2.0274,5.9774-1.0369,5.5807,3.6908c-0.6745,8.0382-3.8003,14.983-9.8759,20.4545
		c-0.3132,0.2821-0.7199,0.4603-1.0831,0.6867c-1.9975-3.7956-5.0525-6.3911-8.9485-8.1335
		c-1.6076-0.719-2.6896-0.3555-3.6055,1.0024c-0.6056,0.8978-1.1454,1.8476-1.8211,2.6887
		c-1.1901,1.4815-2.0958,1.473-3.2336-0.0109c-0.557-0.7265-0.9892-1.5494-1.4699-2.3336c-1.3708-2.2361-1.7875-2.339-4.1761-1.3254
		C83.0836,104.2163,80.1627,107.3198,77.8542,111.1z"/>
	<path class="st4" d="M77.8542,111.1c2.3085-3.7802,5.2294-6.8837,9.4004-8.6536c2.3886-1.0135,2.8054-0.9107,4.1761,1.3254
		c0.4807,0.7842,0.9129,1.6071,1.4699,2.3336c1.1378,1.4839,2.0435,1.4924,3.2336,0.0109c0.6757-0.8411,1.2155-1.7909,1.8211-2.6887
		c0.9159-1.3579,1.9979-1.7213,3.6055-1.0024c3.896,1.7424,6.951,4.338,8.9485,8.1335c-1.2808,1.7572-3.2325,2.5811-5.1192,3.3087
		c-9.2045,3.5495-18.1877,3.3915-26.7588-1.9791C78.3067,111.6848,77.9733,111.5011,77.8542,111.1z"/>
	<path class="st3" d="M66.8027,50.2355c7.6911-0.009,12.8405,7.83,9.8109,14.8983c-0.604,1.4093-1.5386,1.877-2.9753,1.3783
		c-1.1241-0.3902-2.2441-0.7927-3.3747-1.1633c-1.4866-0.4872-2.6552,0.027-3.574,1.2157
		c-0.6298,0.8149-1.2186,1.6617-1.8558,2.4706c-1.3418,1.7035-2.1588,1.8179-3.992,0.5992
		c-3.8026-2.5282-5.5309-7.3613-4.1907-11.7191C58.083,53.2596,62.0732,50.241,66.8027,50.2355z"/>
	<path class="st3" d="M120.0708,50.2353c4.6367,0.0175,8.8156,3.2136,10.1325,7.7496c1.2709,4.3775-0.613,9.3313-4.4816,11.7843
		c-1.6684,1.0579-2.4821,0.9167-3.7387-0.66c-0.304-0.3815-0.5996-0.7708-0.8801-1.1699c-2.1762-3.0965-2.9736-3.3444-6.5279-2.0104
		c-0.507,0.1903-1.0046,0.4065-1.5155,0.585c-1.3711,0.4788-2.2688-0.0027-2.8773-1.31
		C106.9722,58.3077,112.3136,50.2061,120.0708,50.2353z"/>
	<path class="st0" d="M45.6502,61.6221c3.8973-0.4003,7.0333,3.3285,6.8311,6.7729c-0.213,3.6291-2.7822,6.8412-6.8667,6.7741
		c-3.9794-0.0653-6.7757-2.8246-6.835-6.9587C38.7233,64.2914,41.5696,61.6189,45.6502,61.6221z"/>
	<path class="st0" d="M137.5755,68.1318c0.0039-3.9044,2.7366-6.5129,6.8199-6.5099c3.7997,0.0028,6.8632,2.9717,6.8776,6.6705
		c0.0129,3.3062-3.164,6.911-7.0242,6.8034C140.3029,74.9857,137.0881,71.524,137.5755,68.1318z"/>
</g>
</svg>
