<svg xmlns="http://www.w3.org/2000/svg" xmlns:xlink="http://www.w3.org/1999/xlink" id="Layer_1" width="272" height="78" x="0" style="enable-background:new 0 0 272 78" y="0" version="1.1" viewBox="0 0 272 78" xml:space="preserve"><style type="text/css">.st0{fill:#172041}.st1{fill:#1a2243}.st2{fill:#1cb7f7}.st3{fill:#fe8811}</style><g><path d="M151.2897,53.2145c0-5.7043-0.0002-10.1158,0.0001-14.5272c0.0004-5.6652-0.0127-11.3304,0.0069-16.9955 c0.0121-3.4974,0.9702-6.6794,5.1159-6.5003c3.7316,0.1612,4.6152,3.102,4.6023,6.477 c-0.0553,14.496-0.0535,28.9925,0.0023,43.4885c0.011,2.8613-0.3691,5.4356-3.419,6.5084 c-2.9125,1.0245-4.6895-0.9038-6.3083-2.8888c-7.9994-9.809-15.9777-19.6351-23.9731-29.4473 c-1.2291-1.5084-2.5089-2.9756-3.7875-4.4883c-1.6926,1.0655-1.0277,2.5332-1.0364,3.7114 c-0.0661,8.9972-0.0388,17.995-0.0392,26.9927c-0.0002,3.3111-0.8613,6.2995-4.757,6.2948 c-3.8113-0.0046-4.8057-2.7907-4.7937-6.2183c0.0511-14.6627,0.0463-29.3257-0.0015-43.9884 c-0.0087-2.6591,0.2903-5.0738,3.0974-6.1934c3.1668-1.2631,4.9736,0.832,6.6978,2.9532 c7.8784,9.6924,15.7408,19.3978,23.6277,29.0832C147.6324,49.0826,149.0335,50.6133,151.2897,53.2145z" class="st0"/><path d="M184.8912,43.5075c0-7.3246,0.1-14.6511-0.0359-21.9732c-0.0873-4.7061,2.0866-6.6432,6.6641-6.5448 c5.4909,0.118,10.9873-0.0382,16.4796,0.0429c14.6998,0.2169,25.5269,11.3196,26.0634,25.9844 c0.4507,12.3195-3.0528,22.2587-14.5492,28.271c-3.3024,1.7271-6.8158,2.6374-10.5252,2.675 c-5.8258,0.0591-11.6546-0.0662-17.4782,0.0629c-4.5925,0.1018-6.742-1.8451-6.6546-6.545 C184.9913,58.1587,184.8912,50.8322,184.8912,43.5075z M204.7414,24.7147c-2.5264,0-3.8839,0.1642-5.1877-0.0305 c-4.0538-0.6056-5.552,0.7878-5.3043,5.0915c0.3824,6.6428,0.1007,13.3238,0.1007,19.9886c0,12.9879,0,12.9879,13.2071,12.5411 c8.1108-0.2744,14.3484-4.1268,15.8891-11.1584c2.3112-10.548,0.9933-18.408-5.5773-23.3223 C213.518,24.5707,208.5637,24.6276,204.7414,24.7147z" class="st0"/><path d="M42.475,24.7361c-7.893,0-14.7151,0.0017-21.5372-0.0007c-3.4193-0.0012-6.7413-0.6624-6.7834-4.8269 c-0.0418-4.1308,3.1096-4.9322,6.635-4.9142c9.8239,0.0503,19.6484,0.0489,29.4723-0.0055 c2.3013-0.0127,4.3977,0.3456,5.6247,2.4542c1.3646,2.3452,0.4046,4.4318-1.0175,6.4597 c-7.7347,11.0294-15.4511,22.0718-23.1112,33.153c-0.9951,1.4396-2.4713,2.6577-2.8017,5.2373 c6.5726,0,12.9723-0.0094,19.372,0.0064c1.6623,0.0041,3.3442-0.0581,4.9823,0.1654c2.8517,0.3891,4.6724,2.1279,4.4815,5.0296 c-0.1696,2.5779-1.9257,4.3875-4.594,4.4123c-11.4876,0.107-22.9817,0.2527-34.4628-0.0372 c-4.7587-0.1201-6.0231-4.2708-2.9078-8.7922c7.7375-11.2299,15.5674-22.3961,23.3591-33.5887 C40.1053,28.1687,41.0171,26.8435,42.475,24.7361z" class="st1"/><path d="M80.1131,60.8175c0-2.3229-0.2187-4.6721,0.0577-6.9617c0.3154-2.6129,2.0017-4.1371,4.7471-4.1185 c2.5114,0.017,4.1773,1.3847,4.4991,3.8032c0.6356,4.7761,0.6205,9.6071,0.0151,14.3789 c-0.3314,2.6118-2.2407,4.1707-4.9111,3.9572c-2.6184-0.2094-4.2012-1.956-4.4151-4.5879c-0.1743-2.1438-0.0354-4.313-0.0354-6.471 C80.0846,60.8176,80.0988,60.8176,80.1131,60.8175z" class="st1"/><path d="M261.1996,25.1783c0.0056,2.1529,0.1014,4.3111-0.0176,6.4574c-0.1631,2.9411-1.8247,4.6244-4.7762,4.5735 c-2.6803-0.0462-4.4033-1.5837-4.483-4.3191c-0.1302-4.4665-0.1182-8.942,0.0054-13.409c0.0761-2.7488,1.8631-4.3175,4.4675-4.3713 c2.8915-0.0598,4.6108,1.6702,4.7749,4.6116C261.2903,20.8674,261.194,23.0255,261.1996,25.1783z" class="st0"/><path d="M80.0125,37.4102c-0.0896-3.9396,0.3045-7.4477,4.9063-7.3945c4.5789,0.0529,4.8787,3.647,4.8595,7.1375 c-0.0193,3.5076-0.4229,7.1121-4.9872,7.037C80.2684,44.1157,79.8446,40.6037,80.0125,37.4102z" class="st2"/><path d="M261.2281,49.29c0.0919,3.4204-0.3862,6.7066-4.7231,6.7009c-4.3544-0.0057-4.7004-3.3241-4.7057-6.725 c-0.0089-5.73,2.0945-8.4114,5.9601-7.3178C261.6533,43.0496,261.2,46.3083,261.2281,49.29z" class="st2"/><path d="M79.9921,19.0797c0.3006-2.9156,1.7524-5.0492,4.9625-4.9782c3.2253,0.0713,4.7578,2.3688,4.719,5.3315 c-0.0394,3.0047-1.7366,5.2044-4.9397,5.1054C81.5774,24.4407,80.1358,22.2701,79.9921,19.0797z" class="st3"/><path d="M261.2505,66.4887c0.0073,3.0614-1.3354,5.2724-4.5349,5.3861c-3.1718,0.1127-4.7725-1.88-4.8924-5.03 c-0.1208-3.1722,1.4607-5.3086,4.5243-5.4193C259.3875,61.3157,261.208,63.2415,261.2505,66.4887z" class="st3"/></g></svg>